<mxfile host="app.diagrams.net" modified="2020-12-07T12:17:41.558Z" agent="5.0 (X11; Linux x86_64) AppleWebKit/537.36 (KHTML, like Gecko) Chrome/85.0.4183.121 Safari/537.36" etag="F_5s0lzwY3t-xyLLjGUf" version="13.11.0" type="github">
  <diagram id="WoKJdyEFSwbbimIRJlxn" name="Page-1">
    <mxGraphModel dx="2184" dy="809" grid="1" gridSize="10" guides="1" tooltips="1" connect="1" arrows="1" fold="1" page="1" pageScale="1" pageWidth="827" pageHeight="1169" math="0" shadow="0">
      <root>
        <mxCell id="0" />
        <mxCell id="1" parent="0" />
        <mxCell id="EV_--CkJ-o02wKLgaIJ7-3" value="" style="edgeStyle=orthogonalEdgeStyle;rounded=0;orthogonalLoop=1;jettySize=auto;html=1;fontSize=17;fontFamily=Times New Roman;" edge="1" parent="1" source="EV_--CkJ-o02wKLgaIJ7-1" target="EV_--CkJ-o02wKLgaIJ7-2">
          <mxGeometry relative="1" as="geometry" />
        </mxCell>
        <mxCell id="EV_--CkJ-o02wKLgaIJ7-1" value="打哈欠" style="rounded=0;whiteSpace=wrap;html=1;fontSize=17;fontFamily=Times New Roman;" vertex="1" parent="1">
          <mxGeometry x="80" y="200" width="120" height="60" as="geometry" />
        </mxCell>
        <mxCell id="EV_--CkJ-o02wKLgaIJ7-5" value="" style="edgeStyle=orthogonalEdgeStyle;rounded=0;orthogonalLoop=1;jettySize=auto;html=1;fontSize=17;fontFamily=Times New Roman;" edge="1" parent="1" source="EV_--CkJ-o02wKLgaIJ7-2" target="EV_--CkJ-o02wKLgaIJ7-4">
          <mxGeometry relative="1" as="geometry" />
        </mxCell>
        <mxCell id="EV_--CkJ-o02wKLgaIJ7-2" value="注意力" style="rounded=0;whiteSpace=wrap;html=1;fontSize=17;fontFamily=Times New Roman;" vertex="1" parent="1">
          <mxGeometry x="80" y="340" width="120" height="60" as="geometry" />
        </mxCell>
        <mxCell id="EV_--CkJ-o02wKLgaIJ7-7" value="" style="edgeStyle=orthogonalEdgeStyle;rounded=0;orthogonalLoop=1;jettySize=auto;html=1;fontSize=17;fontFamily=Times New Roman;" edge="1" parent="1" source="EV_--CkJ-o02wKLgaIJ7-4" target="EV_--CkJ-o02wKLgaIJ7-6">
          <mxGeometry relative="1" as="geometry" />
        </mxCell>
        <mxCell id="EV_--CkJ-o02wKLgaIJ7-4" value="抓耳挠腮" style="rounded=0;whiteSpace=wrap;html=1;fontSize=17;fontFamily=Times New Roman;" vertex="1" parent="1">
          <mxGeometry x="80" y="480" width="120" height="60" as="geometry" />
        </mxCell>
        <mxCell id="EV_--CkJ-o02wKLgaIJ7-9" value="" style="edgeStyle=orthogonalEdgeStyle;rounded=0;orthogonalLoop=1;jettySize=auto;html=1;fontSize=17;fontFamily=Times New Roman;" edge="1" parent="1" source="EV_--CkJ-o02wKLgaIJ7-6" target="EV_--CkJ-o02wKLgaIJ7-8">
          <mxGeometry relative="1" as="geometry" />
        </mxCell>
        <mxCell id="EV_--CkJ-o02wKLgaIJ7-6" value="举手" style="rounded=0;whiteSpace=wrap;html=1;fontSize=17;fontFamily=Times New Roman;" vertex="1" parent="1">
          <mxGeometry x="80" y="620" width="120" height="60" as="geometry" />
        </mxCell>
        <mxCell id="EV_--CkJ-o02wKLgaIJ7-8" value="趴着" style="rounded=0;whiteSpace=wrap;html=1;fontSize=17;fontFamily=Times New Roman;" vertex="1" parent="1">
          <mxGeometry x="80" y="760" width="120" height="60" as="geometry" />
        </mxCell>
        <mxCell id="EV_--CkJ-o02wKLgaIJ7-11" style="edgeStyle=orthogonalEdgeStyle;rounded=0;orthogonalLoop=1;jettySize=auto;html=1;fontSize=17;fontFamily=Times New Roman;" edge="1" parent="1" source="EV_--CkJ-o02wKLgaIJ7-10" target="EV_--CkJ-o02wKLgaIJ7-4">
          <mxGeometry relative="1" as="geometry" />
        </mxCell>
        <mxCell id="EV_--CkJ-o02wKLgaIJ7-12" style="edgeStyle=orthogonalEdgeStyle;rounded=0;orthogonalLoop=1;jettySize=auto;html=1;entryX=0;entryY=0.5;entryDx=0;entryDy=0;fontSize=17;fontFamily=Times New Roman;" edge="1" parent="1" source="EV_--CkJ-o02wKLgaIJ7-10" target="EV_--CkJ-o02wKLgaIJ7-2">
          <mxGeometry relative="1" as="geometry" />
        </mxCell>
        <mxCell id="EV_--CkJ-o02wKLgaIJ7-13" style="edgeStyle=orthogonalEdgeStyle;rounded=0;orthogonalLoop=1;jettySize=auto;html=1;entryX=0;entryY=0.5;entryDx=0;entryDy=0;fontSize=17;fontFamily=Times New Roman;" edge="1" parent="1" source="EV_--CkJ-o02wKLgaIJ7-10" target="EV_--CkJ-o02wKLgaIJ7-1">
          <mxGeometry relative="1" as="geometry" />
        </mxCell>
        <mxCell id="EV_--CkJ-o02wKLgaIJ7-14" style="edgeStyle=orthogonalEdgeStyle;rounded=0;orthogonalLoop=1;jettySize=auto;html=1;entryX=0;entryY=0.5;entryDx=0;entryDy=0;fontSize=17;fontFamily=Times New Roman;" edge="1" parent="1" source="EV_--CkJ-o02wKLgaIJ7-10" target="EV_--CkJ-o02wKLgaIJ7-6">
          <mxGeometry relative="1" as="geometry" />
        </mxCell>
        <mxCell id="EV_--CkJ-o02wKLgaIJ7-15" style="edgeStyle=orthogonalEdgeStyle;rounded=0;orthogonalLoop=1;jettySize=auto;html=1;entryX=0;entryY=0.5;entryDx=0;entryDy=0;fontSize=17;fontFamily=Times New Roman;" edge="1" parent="1" source="EV_--CkJ-o02wKLgaIJ7-10" target="EV_--CkJ-o02wKLgaIJ7-8">
          <mxGeometry relative="1" as="geometry" />
        </mxCell>
        <mxCell id="EV_--CkJ-o02wKLgaIJ7-10" value="检测脸" style="ellipse;whiteSpace=wrap;html=1;fontSize=17;fontFamily=Times New Roman;" vertex="1" parent="1">
          <mxGeometry x="-230" y="470" width="120" height="80" as="geometry" />
        </mxCell>
      </root>
    </mxGraphModel>
  </diagram>
</mxfile>
